HIERARCHY
ROOT Hips
{
	OFFSET 0.00000 0.00000 0.00000
	CHANNELS 6 Xposition Yposition Zposition Zrotation Yrotation Xrotation 
	JOINT LHipJoint
	{
		OFFSET 0 0 0
		CHANNELS 3 Zrotation Yrotation Xrotation
		JOINT LeftUpLeg
		{
			OFFSET 1.41496 -1.84582 0.78394
			CHANNELS 3 Zrotation Yrotation Xrotation
			JOINT LeftLeg
			{
				OFFSET 2.58040 -7.08960 0.00000
				CHANNELS 3 Zrotation Yrotation Xrotation
				JOINT LeftFoot
				{
					OFFSET 2.64719 -7.27309 0.00000
					CHANNELS 3 Zrotation Yrotation Xrotation
					JOINT LeftToeBase
					{
						OFFSET 0.20718 -0.56921 2.20259
						CHANNELS 3 Zrotation Yrotation Xrotation
						End Site
						{
							OFFSET 0.00000 -0.00000 1.14243
						}
					}
				}
			}
		}
	}
	JOINT RHipJoint
	{
		OFFSET 0 0 0
		CHANNELS 3 Zrotation Yrotation Xrotation
		JOINT RightUpLeg
		{
			OFFSET -1.40551 -1.84582 0.78394
			CHANNELS 3 Zrotation Yrotation Xrotation
			JOINT RightLeg
			{
				OFFSET -2.56572 -7.04926 0.00000
				CHANNELS 3 Zrotation Yrotation Xrotation
				JOINT RightFoot
				{
					OFFSET -2.57974 -7.08778 0.00000
					CHANNELS 3 Zrotation Yrotation Xrotation
					JOINT RightToeBase
					{
						OFFSET -0.26704 -0.73369 2.20815
						CHANNELS 3 Zrotation Yrotation Xrotation
						End Site
						{
							OFFSET -0.00000 -0.00000 1.16246
						}
					}
				}
			}
		}
	}
	JOINT LowerBack
	{
		OFFSET 0 0 0
		CHANNELS 3 Zrotation Yrotation Xrotation
		JOINT Spine
		{
			OFFSET -0.04690 2.05196 -0.07017
			CHANNELS 3 Zrotation Yrotation Xrotation
			JOINT Spine1
			{
				OFFSET 0.04085 2.05260 0.00800
				CHANNELS 3 Zrotation Yrotation Xrotation
				JOINT Neck
				{
					OFFSET 0 0 0
					CHANNELS 3 Zrotation Yrotation Xrotation
					JOINT Neck1
					{
						OFFSET -0.03582 1.80995 0.19301
						CHANNELS 3 Zrotation Yrotation Xrotation
						JOINT Head
						{
							OFFSET 0.00952 1.80195 -0.36389
							CHANNELS 3 Zrotation Yrotation Xrotation
							End Site
							{
								OFFSET 0.00392 1.85062 -0.14494
							}
						}
					}
				}
				JOINT LeftShoulder
				{
					OFFSET 0 0 0
					CHANNELS 3 Zrotation Yrotation Xrotation
					JOINT LeftArm
					{
						OFFSET 3.55224 1.39726 -0.13667
						CHANNELS 3 Zrotation Yrotation Xrotation
						JOINT LeftForeArm
						{
							OFFSET 5.14507 -0.00000 -0.00000
							CHANNELS 3 Zrotation Yrotation Xrotation
							JOINT LeftHand
							{
								OFFSET 3.50646 -0.00000 0.00000
								CHANNELS 3 Zrotation Yrotation Xrotation
								JOINT LeftFingerBase
								{
									OFFSET 0 0 0
									CHANNELS 3 Zrotation Yrotation Xrotation
									JOINT LeftHandIndex1
									{
										OFFSET 0.62997 -0.00000 0.00000
										CHANNELS 3 Zrotation Yrotation Xrotation
										End Site
										{
											OFFSET 0.50790 -0.00000 0.00000
										}
									}
								}
								JOINT LThumb
								{
									OFFSET 0 0 0
									CHANNELS 3 Zrotation Yrotation Xrotation
									End Site
									{
										OFFSET 0.51565 -0.00000 0.51565
									}
								}
							}
						}
					}
				}
				JOINT RightShoulder
				{
					OFFSET 0 0 0
					CHANNELS 3 Zrotation Yrotation Xrotation
					JOINT RightArm
					{
						OFFSET -3.06467 1.61290 -0.28813
						CHANNELS 3 Zrotation Yrotation Xrotation
						JOINT RightForeArm
						{
							OFFSET -5.23200 -0.00000 -0.00000
							CHANNELS 3 Zrotation Yrotation Xrotation
							JOINT RightHand
							{
								OFFSET -3.65641 -0.00000 0.00000
								CHANNELS 3 Zrotation Yrotation Xrotation
								JOINT RightFingerBase
								{
									OFFSET 0 0 0
									CHANNELS 3 Zrotation Yrotation Xrotation
									JOINT RightHandIndex1
									{
										OFFSET -0.65681 -0.00000 0.00000
										CHANNELS 3 Zrotation Yrotation Xrotation
										End Site
										{
											OFFSET -0.52953 -0.00000 0.00000
										}
									}
								}
								JOINT RThumb
								{
									OFFSET 0 0 0
									CHANNELS 3 Zrotation Yrotation Xrotation
									End Site
									{
										OFFSET -0.53762 -0.00000 0.53762
									}
								}
							}
						}
					}
				}
			}
		}
	}
}
MOTION
Frames: 10
Frame Time: .0083333
0.7703 17.8780 -14.9474 -181.3090 -5.7622 -172.4970 0.0000 0.0000 0.0000 -22.3487 -10.8688 -18.4019 4.1972 12.4184 37.2285 0.8743 -13.1313 -17.8267 0.2921 3.4754 9.6051 0.0000 0.0000 0.0000 21.1307 7.6882 -15.9674 -3.1714 -10.9675 32.1702 -0.6620 -9.2628 -21.4080 -0.2168 2.9974 -8.2714 -4.2143 -0.0820 3.0759 1.3291 -0.3684 -3.6488 3.7831 -0.0175 -5.4889 -3.2626 -2.4193 -15.0313 4.7630 -3.2302 9.5296 1.7362 -1.3630 5.4576 0.0000 -0.0000 0.0000 -90.4341 9.0884 12.4280 13.4861 -21.9953 -2.6326 -0.0000 -0.0000 17.8057 11.5419 8.0843 1.6450 -7.1250 0.0000 -0.0000 -13.0685 37.9246 2.3241 0.0000 -0.0000 0.0000 89.1151 -5.1434 26.5293 -18.5815 28.8953 -4.8269 0.0000 0.0000 6.5115 -19.2217 -4.4297 1.5425 7.1250 -0.0000 -0.0000 6.1383 -34.6187 1.5718
0.7681 17.8761 -14.9767 -181.3700 -5.7708 -172.4300 0.0000 0.0000 0.0000 -22.4178 -10.8027 -18.3672 4.1929 12.4128 37.2085 0.8683 -13.2257 -17.8070 0.3026 3.5369 9.7774 0.0000 0.0000 0.0000 21.0640 7.6074 -15.9654 -3.1774 -10.9769 32.2020 -0.6805 -9.1798 -21.5088 -0.2209 3.0257 -8.3503 -4.2745 -0.0864 3.0684 1.3321 -0.3778 -3.6562 3.8211 -0.0196 -5.4917 -3.2129 -2.3759 -15.0588 4.8068 -3.1880 9.5131 1.7457 -1.3378 5.4553 0.0000 0.0000 0.0000 -90.4563 9.0540 12.9121 13.7159 -22.3272 -2.7193 -0.0000 -0.0000 17.2458 11.6629 8.1031 1.6665 -7.1250 0.0000 -0.0000 -12.9710 37.9515 2.2974 0.0000 0.0000 0.0000 89.1437 -5.1331 26.0231 -18.1188 28.3091 -4.6055 0.0000 0.0000 7.2212 -18.9771 -4.6052 1.5815 7.1250 -0.0000 -0.0000 6.3574 -34.7927 1.6014
0.7659 17.8746 -15.0058 -181.4300 -5.7923 -172.3650 0.0000 0.0000 0.0000 -22.4836 -10.7336 -18.3314 4.1883 12.4068 37.1867 0.8591 -13.3333 -17.7654 0.3157 3.6116 9.9865 0.0000 0.0000 0.0000 20.9989 7.5156 -15.9617 -3.1824 -10.9846 32.2278 -0.6988 -9.0934 -21.6045 -0.2238 3.0451 -8.4042 -4.3239 -0.0948 3.0622 1.3347 -0.3917 -3.6612 3.8527 -0.0245 -5.4922 -3.1661 -2.3350 -15.1008 4.8501 -3.1492 9.5153 1.7550 -1.3140 5.4614 -0.0000 0.0000 0.0000 -90.4776 9.0148 13.4214 13.9611 -22.6791 -2.8131 -0.0000 -0.0000 16.6113 11.8217 8.1576 1.7012 -7.1250 0.0000 -0.0000 -12.8491 38.0165 2.2539 -0.0000 0.0000 0.0000 89.1889 -5.1402 25.4392 -17.6979 27.7687 -4.4076 0.0000 0.0000 7.8608 -18.7533 -4.7945 1.6255 7.1250 -0.0000 -0.0000 6.5617 -34.9814 1.6232
0.7640 17.8734 -15.0344 -181.4810 -5.8196 -172.3000 0.0000 0.0000 0.0000 -22.5382 -10.6657 -18.3012 4.1839 12.4012 37.1663 0.8480 -13.4467 -17.7109 0.3305 3.6949 10.2200 0.0000 0.0000 0.0000 20.9433 7.4314 -15.9553 -3.1859 -10.9900 32.2462 -0.7151 -9.0192 -21.6924 -0.2261 3.0606 -8.4475 -4.3603 -0.1044 3.0574 1.3384 -0.4066 -3.6649 3.8783 -0.0303 -5.4919 -3.1261 -2.2966 -15.1536 4.8976 -3.1130 9.5302 1.7665 -1.2912 5.4736 -0.0000 -0.0000 0.0000 -90.4968 8.9611 13.9501 14.2139 -23.0397 -2.9113 -0.0000 -0.0000 15.9325 12.0128 8.2249 1.7436 -7.1250 0.0000 -0.0000 -12.7025 38.0966 2.2017 -0.0000 -0.0000 0.0000 89.2497 -5.1623 24.7853 -17.3183 27.2755 -4.2322 0.0000 0.0000 8.4201 -18.5671 -4.9803 1.6703 7.1250 -0.0000 -0.0000 6.7357 -35.1673 1.6361
0.7622 17.8725 -15.0625 -181.5240 -5.8547 -172.2350 0.0000 0.0000 0.0000 -22.5815 -10.6042 -18.2728 4.1802 12.3965 37.1494 0.8369 -13.5605 -17.6571 0.3453 3.7759 10.4469 0.0000 0.0000 0.0000 20.8992 7.3524 -15.9430 -3.1877 -10.9928 32.2557 -0.7294 -8.9597 -21.7741 -0.2280 3.0736 -8.4837 -4.3793 -0.1151 3.0559 1.3428 -0.4219 -3.6691 3.8948 -0.0370 -5.4939 -3.0912 -2.2635 -15.2138 4.9456 -3.0835 9.5588 1.7784 -1.2715 5.4916 0.0000 0.0000 0.0000 -90.5096 8.8995 14.5062 14.4747 -23.4093 -3.0141 -0.0000 -0.0000 15.2287 12.2235 8.2962 1.7904 -7.1250 0.0000 -0.0000 -12.5399 38.1823 2.1455 0.0000 0.0000 0.0000 89.3164 -5.2043 24.1005 -16.9828 26.8351 -4.0796 0.0000 0.0000 8.8736 -18.4226 -5.1841 1.7239 7.1250 -0.0000 -0.0000 6.8781 -35.3736 1.6363
0.7609 17.8719 -15.0901 -181.5550 -5.8937 -172.1680 0.0000 0.0000 0.0000 -22.6094 -10.5521 -18.2526 4.1779 12.3934 37.1382 0.8272 -13.6678 -17.6131 0.3579 3.8436 10.6371 0.0000 0.0000 0.0000 20.8708 7.2931 -15.9251 -3.1878 -10.9931 32.2566 -0.7410 -8.9244 -21.8517 -0.2296 3.0845 -8.5140 -4.3824 -0.1259 3.0552 1.3492 -0.4365 -3.6733 3.9045 -0.0439 -5.4966 -3.0604 -2.2346 -15.2814 4.9922 -3.0590 9.5977 1.7900 -1.2542 5.5144 0.0000 0.0000 0.0000 -90.5151 8.8223 15.0843 14.7386 -23.7807 -3.1198 -0.0000 -0.0000 14.5268 12.4517 8.3506 1.8367 -7.1250 0.0000 -0.0000 -12.3590 38.2525 2.0917 0.0000 0.0000 0.0000 89.3857 -5.2597 23.4060 -16.6884 26.4452 -3.9476 0.0000 0.0000 9.2108 -18.3154 -5.4052 1.7860 7.1250 -0.0000 -0.0000 6.9926 -35.5993 1.6252
0.7598 17.8715 -15.1173 -181.5770 -5.9386 -172.0980 0.0000 0.0000 0.0000 -22.6250 -10.5141 -18.2382 4.1768 12.3920 37.1332 0.8196 -13.7647 -17.5838 0.3682 3.8974 10.7883 0.0000 0.0000 0.0000 20.8563 7.2490 -15.9027 -3.1866 -10.9912 32.2502 -0.7501 -8.9152 -21.9275 -0.2316 3.0972 -8.5494 -4.3718 -0.1380 3.0521 1.3575 -0.4521 -3.6786 3.9084 -0.0518 -5.4987 -3.0351 -2.2088 -15.3462 5.0376 -3.0373 9.6376 1.8019 -1.2387 5.5372 0.0000 0.0000 0.0000 -90.5141 8.7313 15.6789 15.0048 -24.1527 -3.2279 -0.0000 -0.0000 13.8474 12.6870 8.3866 1.8806 -7.1250 0.0000 -0.0000 -12.1681 38.3050 2.0422 0.0000 0.0000 0.0000 89.4505 -5.3321 22.7264 -16.4354 26.1075 -3.8356 0.0000 0.0000 9.4373 -18.2406 -5.6399 1.8551 7.1250 -0.0000 -0.0000 7.0827 -35.8405 1.6045
0.7592 17.8711 -15.1443 -181.5960 -5.9864 -172.0260 0.0000 0.0000 0.0000 -22.6358 -10.4923 -18.2262 4.1768 12.3920 37.1331 0.8150 -13.8446 -17.5736 0.3747 3.9313 10.8836 0.0000 0.0000 0.0000 20.8495 7.2222 -15.8753 -3.1845 -10.9879 32.2390 -0.7571 -8.9300 -22.0053 -0.2338 3.1118 -8.5902 -4.3564 -0.1501 3.0470 1.3664 -0.4671 -3.6824 3.9101 -0.0598 -5.4982 -3.0136 -2.1879 -15.4132 5.0800 -3.0210 9.6781 1.8129 -1.2259 5.5608 -0.0000 0.0000 0.0000 -90.5068 8.6199 16.2816 15.2688 -24.5192 -3.3367 -0.0000 -0.0000 13.2126 12.9250 8.3915 1.9182 -7.1250 0.0000 -0.0000 -11.9686 38.3268 2.0010 -0.0000 0.0000 0.0000 89.5072 -5.4137 22.0809 -16.2210 25.8194 -3.7417 0.0000 0.0000 9.5517 -18.1891 -5.8983 1.9339 7.1250 -0.0000 -0.0000 7.1570 -36.1072 1.5746
0.7592 17.8707 -15.1707 -181.6150 -6.0356 -171.9480 0.0000 0.0000 0.0000 -22.6460 -10.4860 -18.2194 4.1772 12.3926 37.1354 0.8145 -13.9072 -17.5901 0.3770 3.9436 10.9181 0.0000 0.0000 0.0000 20.8453 7.2130 -15.8489 -3.1821 -10.9842 32.2267 -0.7627 -8.9654 -22.0868 -0.2360 3.1268 -8.6319 -4.3411 -0.1625 3.0410 1.3749 -0.4827 -3.6884 3.9116 -0.0680 -5.4996 -2.9947 -2.1691 -15.4757 5.1154 -3.0060 9.7171 1.8221 -1.2144 5.5831 0.0000 -0.0000 0.0000 -90.4953 8.4929 16.8864 15.5321 -24.8822 -3.4467 -0.0000 -0.0000 12.6304 13.1568 8.3706 1.9489 -7.1250 0.0000 -0.0000 -11.7691 38.3221 1.9679 0.0000 -0.0000 0.0000 89.5530 -5.5104 21.4814 -16.0411 25.5764 -3.6637 0.0000 0.0000 9.5719 -18.1675 -6.1489 2.0131 7.1250 -0.0000 -0.0000 7.2065 -36.3673 1.5396
0.7596 17.8702 -15.1968 -181.6420 -6.0891 -171.8650 0.0000 0.0000 0.0000 -22.6628 -10.4931 -18.2136 4.1777 12.3932 37.1374 0.8152 -13.9565 -17.6119 0.3785 3.9512 10.9395 0.0000 0.0000 0.0000 20.8372 7.2111 -15.8252 -3.1801 -10.9810 32.2159 -0.7675 -9.0158 -22.1734 -0.2389 3.1456 -8.6845 -4.3316 -0.1771 3.0305 1.3813 -0.5015 -3.6955 3.9143 -0.0777 -5.4991 -2.9757 -2.1524 -15.5247 5.1442 -2.9929 9.7486 1.8292 -1.2045 5.6008 -0.0000 -0.0000 0.0000 -90.4795 8.3533 17.4854 15.7941 -25.2407 -3.5577 -0.0000 -0.0000 12.1081 13.3806 8.3241 1.9724 -7.1250 0.0000 -0.0000 -11.5713 38.2912 1.9427 -0.0000 -0.0000 0.0000 89.5874 -5.6201 20.9347 -15.8927 25.3749 -3.5999 0.0000 0.0000 9.5161 -18.1646 -6.3841 2.0894 7.1250 -0.0000 -0.0000 7.2390 -36.6123 1.5030
